<svg id="visual" viewBox="0 0 960 300" width="960" height="300" xmlns="http://www.w3.org/2000/svg" xmlns:xlink="http://www.w3.org/1999/xlink" version="1.1"><path d="M0 218L22.8 217.8C45.7 217.7 91.3 217.3 137 214.8C182.7 212.3 228.3 207.7 274 203.7C319.7 199.7 365.3 196.3 411.2 199C457 201.7 503 210.3 548.8 208.3C594.7 206.3 640.3 193.7 686 186.8C731.7 180 777.3 179 823 185.7C868.7 192.3 914.3 206.7 937.2 213.8L960 221L960 301L937.2 301C914.3 301 868.7 301 823 301C777.3 301 731.7 301 686 301C640.3 301 594.7 301 548.8 301C503 301 457 301 411.2 301C365.3 301 319.7 301 274 301C228.3 301 182.7 301 137 301C91.3 301 45.7 301 22.8 301L0 301Z" fill="#c62368"></path><path d="M0 216L22.8 219.3C45.7 222.7 91.3 229.3 137 231.5C182.7 233.7 228.3 231.3 274 228.7C319.7 226 365.3 223 411.2 219.2C457 215.3 503 210.7 548.8 211.8C594.7 213 640.3 220 686 223C731.7 226 777.3 225 823 223.7C868.7 222.3 914.3 220.7 937.2 219.8L960 219L960 301L937.2 301C914.3 301 868.7 301 823 301C777.3 301 731.7 301 686 301C640.3 301 594.7 301 548.8 301C503 301 457 301 411.2 301C365.3 301 319.7 301 274 301C228.3 301 182.7 301 137 301C91.3 301 45.7 301 22.8 301L0 301Z" fill="#d53867"></path><path d="M0 239L22.8 236.2C45.7 233.3 91.3 227.7 137 230.3C182.7 233 228.3 244 274 244.8C319.7 245.7 365.3 236.3 411.2 234.8C457 233.3 503 239.7 548.8 243.7C594.7 247.7 640.3 249.3 686 245.3C731.7 241.3 777.3 231.7 823 226.8C868.7 222 914.3 222 937.2 222L960 222L960 301L937.2 301C914.3 301 868.7 301 823 301C777.3 301 731.7 301 686 301C640.3 301 594.7 301 548.8 301C503 301 457 301 411.2 301C365.3 301 319.7 301 274 301C228.3 301 182.7 301 137 301C91.3 301 45.7 301 22.8 301L0 301Z" fill="#e34c67"></path><path d="M0 254L22.8 252.2C45.7 250.3 91.3 246.7 137 247.2C182.7 247.7 228.3 252.3 274 253.7C319.7 255 365.3 253 411.2 250.5C457 248 503 245 548.8 245.8C594.7 246.7 640.3 251.3 686 255.3C731.7 259.3 777.3 262.7 823 262.3C868.7 262 914.3 258 937.2 256L960 254L960 301L937.2 301C914.3 301 868.7 301 823 301C777.3 301 731.7 301 686 301C640.3 301 594.7 301 548.8 301C503 301 457 301 411.2 301C365.3 301 319.7 301 274 301C228.3 301 182.7 301 137 301C91.3 301 45.7 301 22.8 301L0 301Z" fill="#ef5f67"></path><path d="M0 272L22.8 274.3C45.7 276.7 91.3 281.3 137 283.5C182.7 285.7 228.3 285.3 274 283C319.7 280.7 365.3 276.3 411.2 275C457 273.7 503 275.3 548.8 275.8C594.7 276.3 640.3 275.7 686 275.8C731.7 276 777.3 277 823 276.5C868.7 276 914.3 274 937.2 273L960 272L960 301L937.2 301C914.3 301 868.7 301 823 301C777.3 301 731.7 301 686 301C640.3 301 594.7 301 548.8 301C503 301 457 301 411.2 301C365.3 301 319.7 301 274 301C228.3 301 182.7 301 137 301C91.3 301 45.7 301 22.8 301L0 301Z" fill="#fa7268"></path></svg>